<svg width="20" height="20" viewBox="0 0 20 20" fill="none" xmlns="http://www.w3.org/2000/svg">
<path fill-rule="evenodd" clip-rule="evenodd" d="M10 2C10.4971 2 10.9 2.38056 10.9 2.85V10.9979L13.8636 8.19896C14.2151 7.86701 14.7849 7.86701 15.1364 8.19896C15.4879 8.5309 15.4879 9.0691 15.1364 9.40104L10.6364 13.651C10.2849 13.983 9.71508 13.983 9.3636 13.651L4.8636 9.40104C4.51213 9.0691 4.51213 8.5309 4.8636 8.19896C5.21508 7.86701 5.78492 7.86701 6.1364 8.19896L9.1 10.9979V2.85C9.1 2.38056 9.50294 2 10 2ZM1.9 12.2C2.39706 12.2 2.8 12.5806 2.8 13.05V16.45C2.8 16.6754 2.89482 16.8916 3.0636 17.051C3.23239 17.2104 3.46131 17.3 3.7 17.3H16.3C16.5387 17.3 16.7676 17.2104 16.9364 17.051C17.1052 16.8916 17.2 16.6754 17.2 16.45V13.05C17.2 12.5806 17.6029 12.2 18.1 12.2C18.5971 12.2 19 12.5806 19 13.05V16.45C19 17.1263 18.7155 17.7749 18.2092 18.2531C17.7028 18.7313 17.0161 19 16.3 19H3.7C2.98392 19 2.29716 18.7313 1.79081 18.2531C1.28446 17.7749 1 17.1263 1 16.45V13.05C1 12.5806 1.40294 12.2 1.9 12.2Z" fill="#1A1A1A"/>
</svg>
